<svg width="153" height="27" viewBox="0 0 153 27" fill="none" xmlns="http://www.w3.org/2000/svg">
<path d="M6.82 11.226C6.59267 11.4167 6.303 11.5597 5.951 11.655C5.599 11.7577 5.18467 11.809 4.708 11.809H1.001C0.825 11.809 0.696667 11.7687 0.616 11.688C0.535333 11.6073 0.495 11.479 0.495 11.303V4.175C0.495 4.07967 0.506 3.999 0.528 3.933C0.557333 3.867 0.597667 3.812 0.649 3.768L2.068 2.569C2.10467 2.53967 2.15233 2.51767 2.211 2.503C2.277 2.481 2.34667 2.47 2.42 2.47H6.127C7.08767 2.47 7.79533 2.66433 8.25 3.053C8.712 3.44167 8.943 4.032 8.943 4.824V8.256C8.943 8.652 8.88433 9.00033 8.767 9.301C8.64967 9.59433 8.47733 9.84 8.25 10.038L6.82 11.226ZM6.127 10.5C7.04367 10.5 7.722 10.3167 8.162 9.95C8.60933 9.58333 8.833 9.01867 8.833 8.256V4.824C8.833 4.06133 8.60933 3.49667 8.162 3.13C7.722 2.76333 7.04367 2.58 6.127 2.58H2.42C2.28067 2.58 2.178 2.613 2.112 2.679C2.05333 2.73767 2.024 2.83667 2.024 2.976V10.104C2.024 10.2433 2.05333 10.346 2.112 10.412C2.178 10.4707 2.28067 10.5 2.42 10.5H6.127ZM3.223 9.51V3.57H5.885C6.259 3.57 6.55967 3.61033 6.787 3.691C7.02167 3.77167 7.20133 3.88167 7.326 4.021C7.45067 4.153 7.535 4.31433 7.579 4.505C7.623 4.68833 7.645 4.88633 7.645 5.099V8.014C7.645 8.22667 7.623 8.42467 7.579 8.608C7.54233 8.79133 7.46167 8.949 7.337 9.081C7.21233 9.213 7.03267 9.31933 6.798 9.4C6.56333 9.47333 6.259 9.51 5.885 9.51H3.223ZM5.885 3.68H3.333V9.4H5.885C6.237 9.4 6.51933 9.367 6.732 9.301C6.952 9.22767 7.12067 9.13233 7.238 9.015C7.35533 8.89033 7.43233 8.74367 7.469 8.575C7.513 8.399 7.535 8.212 7.535 8.014V5.099C7.535 4.901 7.513 4.714 7.469 4.538C7.425 4.362 7.34433 4.21167 7.227 4.087C7.10967 3.96233 6.941 3.86333 6.721 3.79C6.50833 3.71667 6.22967 3.68 5.885 3.68ZM4.521 4.681H5.83C6.006 4.681 6.13433 4.725 6.215 4.813C6.303 4.89367 6.347 5.02567 6.347 5.209V7.882C6.347 8.06533 6.303 8.201 6.215 8.289C6.13433 8.377 6.006 8.421 5.83 8.421H4.521V4.681ZM4.818 6.408C4.818 6.31267 4.80333 6.232 4.774 6.166C4.74467 6.1 4.697 6.05233 4.631 6.023V8.311H4.818V6.408ZM23.8227 3.68H21.4247V6.859H23.8227C24.2774 6.859 24.5817 6.749 24.7357 6.529C24.8897 6.309 24.9667 5.99733 24.9667 5.594V4.824C24.9667 4.48667 24.8714 4.21167 24.6807 3.999C24.4974 3.78633 24.2114 3.68 23.8227 3.68ZM22.6127 4.56H23.4377C23.6284 4.56 23.7567 4.61133 23.8227 4.714C23.8887 4.80933 23.9217 4.93033 23.9217 5.077V5.451C23.9217 5.59767 23.8887 5.72233 23.8227 5.825C23.7567 5.92033 23.6284 5.968 23.4377 5.968H22.6127V4.56ZM21.4247 9.51H21.3147V3.57H23.8227C24.2481 3.57 24.5634 3.691 24.7687 3.933C24.9741 4.16767 25.0767 4.46467 25.0767 4.824V5.583C25.0767 5.92033 25.0327 6.199 24.9447 6.419C24.8567 6.63167 24.6807 6.77833 24.4167 6.859H24.5377C24.9851 6.859 25.3187 6.96167 25.5387 7.167C25.7587 7.365 25.8687 7.65467 25.8687 8.036V9.51H25.7587V8.036C25.7587 7.67667 25.6597 7.409 25.4617 7.233C25.2637 7.04967 24.9557 6.958 24.5377 6.958H21.4247V9.51ZM22.2167 10.5C22.3561 10.5 22.4551 10.4707 22.5137 10.412C22.5797 10.346 22.6127 10.2433 22.6127 10.104V7.948H24.1527C24.3067 7.948 24.4131 7.98833 24.4717 8.069C24.5377 8.14233 24.5707 8.25967 24.5707 8.421V10.104C24.5707 10.2433 24.6001 10.346 24.6587 10.412C24.7247 10.4707 24.8274 10.5 24.9667 10.5H26.6717C26.8111 10.5 26.9101 10.4707 26.9687 10.412C27.0347 10.346 27.0677 10.2433 27.0677 10.104V7.772C27.0677 7.31 26.9431 6.93967 26.6937 6.661C26.4517 6.38233 26.1327 6.221 25.7367 6.177C25.9641 6.08167 26.1217 5.92767 26.2097 5.715C26.3051 5.495 26.3527 5.231 26.3527 4.923V4.417C26.3527 3.87433 26.1951 3.43433 25.8797 3.097C25.5717 2.75233 25.0071 2.58 24.1857 2.58H20.5227C20.3834 2.58 20.2807 2.613 20.2147 2.679C20.1561 2.73767 20.1267 2.83667 20.1267 2.976V10.104C20.1267 10.2433 20.1561 10.346 20.2147 10.412C20.2807 10.4707 20.3834 10.5 20.5227 10.5H22.2167ZM22.5687 10.511L21.1387 11.699C21.1094 11.7283 21.0617 11.754 20.9957 11.776C20.9371 11.798 20.8711 11.809 20.7977 11.809H19.1037C18.9277 11.809 18.7994 11.7687 18.7187 11.688C18.6381 11.6073 18.5977 11.479 18.5977 11.303V4.175C18.5977 4.07967 18.6087 3.999 18.6307 3.933C18.6601 3.867 18.7004 3.812 18.7517 3.768L20.1707 2.569C20.2074 2.53967 20.2551 2.51767 20.3137 2.503C20.3797 2.481 20.4494 2.47 20.5227 2.47H24.1857C25.0584 2.47 25.6561 2.65333 25.9787 3.02C26.3014 3.37933 26.4627 3.845 26.4627 4.417V4.923C26.4627 5.19433 26.4297 5.43267 26.3637 5.638C26.2977 5.836 26.1914 5.99733 26.0447 6.122H26.0337C26.3784 6.21733 26.6534 6.408 26.8587 6.694C27.0714 6.98 27.1777 7.33933 27.1777 7.772V10.104C27.1777 10.1993 27.1631 10.28 27.1337 10.346C27.1117 10.412 27.0751 10.467 27.0237 10.511L25.5937 11.699C25.5644 11.7283 25.5167 11.754 25.4507 11.776C25.3921 11.798 25.3261 11.809 25.2527 11.809H23.5477C23.3717 11.809 23.2434 11.7687 23.1627 11.688C23.0821 11.6073 23.0417 11.479 23.0417 11.303V9.62C23.0417 9.50267 23.0197 9.41467 22.9757 9.356C22.9317 9.29 22.8511 9.257 22.7337 9.257H22.7227V10.104C22.7227 10.1993 22.7081 10.28 22.6787 10.346C22.6567 10.412 22.6201 10.467 22.5687 10.511ZM42.8845 11.281C42.6279 11.501 42.2685 11.6697 41.8065 11.787C41.3445 11.9117 40.7505 11.974 40.0245 11.974C39.3059 11.974 38.7155 11.897 38.2535 11.743C37.7989 11.5963 37.4395 11.3983 37.1755 11.149C36.9189 10.8997 36.7392 10.6137 36.6365 10.291C36.5412 9.96833 36.4935 9.63467 36.4935 9.29V5.869C36.4935 5.53167 36.5412 5.22 36.6365 4.934C36.7319 4.64067 36.9042 4.39133 37.1535 4.186L38.5835 2.998C38.8402 2.778 39.1959 2.60933 39.6505 2.492C40.1125 2.36733 40.7102 2.305 41.4435 2.305C42.1622 2.305 42.7489 2.36367 43.2035 2.481C43.6655 2.59833 44.0249 2.76333 44.2815 2.976C44.5455 3.18133 44.7252 3.43067 44.8205 3.724C44.9159 4.01 44.9635 4.32533 44.9635 4.67V8.421C44.9635 8.75833 44.9159 9.07 44.8205 9.356C44.7252 9.642 44.5529 9.88767 44.3035 10.093L42.8845 11.281ZM44.8535 8.421V4.67C44.8535 4.33267 44.8022 4.02833 44.6995 3.757C44.6042 3.47833 44.4282 3.24 44.1715 3.042C43.9222 2.844 43.5739 2.69 43.1265 2.58C42.6865 2.47 42.1255 2.415 41.4435 2.415C40.7615 2.415 40.1969 2.47 39.7495 2.58C39.3022 2.69 38.9502 2.844 38.6935 3.042C38.4442 3.24 38.2682 3.47833 38.1655 3.757C38.0702 4.02833 38.0225 4.33267 38.0225 4.67V8.421C38.0225 8.75833 38.0702 9.06633 38.1655 9.345C38.2682 9.61633 38.4442 9.851 38.6935 10.049C38.9502 10.2397 39.3022 10.39 39.7495 10.5C40.1969 10.61 40.7615 10.665 41.4435 10.665C42.1255 10.665 42.6865 10.61 43.1265 10.5C43.5739 10.39 43.9222 10.2397 44.1715 10.049C44.4282 9.851 44.6042 9.61633 44.6995 9.345C44.8022 9.06633 44.8535 8.75833 44.8535 8.421ZM43.6545 8.168C43.6545 8.608 43.4969 8.96733 43.1815 9.246C42.8662 9.51733 42.2795 9.653 41.4215 9.653C40.5635 9.653 39.9805 9.51733 39.6725 9.246C39.3645 8.96733 39.2105 8.608 39.2105 8.168V4.923C39.2105 4.483 39.3645 4.12733 39.6725 3.856C39.9805 3.57733 40.5635 3.438 41.4215 3.438C42.2795 3.438 42.8662 3.57733 43.1815 3.856C43.4969 4.12733 43.6545 4.483 43.6545 4.923V8.168ZM39.3205 8.168C39.3205 8.57867 39.4672 8.91233 39.7605 9.169C40.0539 9.41833 40.6075 9.543 41.4215 9.543C42.2355 9.543 42.7929 9.41833 43.0935 9.169C43.3942 8.91233 43.5445 8.57867 43.5445 8.168V4.923C43.5445 4.51233 43.3942 4.18233 43.0935 3.933C42.7929 3.67633 42.2355 3.548 41.4215 3.548C40.6075 3.548 40.0539 3.67633 39.7605 3.933C39.4672 4.18233 39.3205 4.51233 39.3205 4.923V8.168ZM40.5195 8.025V5.066C40.5195 4.92667 40.5745 4.80933 40.6845 4.714C40.7945 4.61133 41.0475 4.56 41.4435 4.56C41.8395 4.56 42.0925 4.61133 42.2025 4.714C42.3125 4.80933 42.3675 4.92667 42.3675 5.066V8.025C42.3675 8.17167 42.3125 8.29633 42.2025 8.399C42.0925 8.49433 41.8395 8.542 41.4435 8.542C41.0475 8.542 40.7945 8.49433 40.6845 8.399C40.5745 8.29633 40.5195 8.17167 40.5195 8.025ZM40.6295 8.025C40.6295 8.09833 40.6442 8.16433 40.6735 8.223C40.7029 8.27433 40.7579 8.31833 40.8385 8.355V6.265C40.8385 6.19167 40.8239 6.12933 40.7945 6.078C40.7652 6.01933 40.7102 5.97533 40.6295 5.946V8.025ZM59.6366 11.809H54.9506C54.7746 11.809 54.6463 11.7687 54.5656 11.688C54.4849 11.6073 54.4446 11.479 54.4446 11.303V9.994C54.4446 9.89867 54.4556 9.818 54.4776 9.752C54.5069 9.686 54.5473 9.631 54.5986 9.587L55.9296 8.465V6.012H54.9506C54.7746 6.012 54.6463 5.97167 54.5656 5.891C54.4849 5.81033 54.4446 5.682 54.4446 5.506V4.175C54.4446 4.07967 54.4556 3.999 54.4776 3.933C54.5069 3.867 54.5473 3.812 54.5986 3.768L56.0176 2.569C56.0543 2.53967 56.1019 2.51767 56.1606 2.503C56.2266 2.481 56.2963 2.47 56.3696 2.47H61.0556C61.2316 2.47 61.3599 2.51033 61.4406 2.591C61.5213 2.67167 61.5616 2.8 61.5616 2.976V4.307C61.5616 4.40233 61.5469 4.483 61.5176 4.549C61.4956 4.615 61.4589 4.67 61.4076 4.714L60.0986 5.814V8.289H61.0556C61.2316 8.289 61.3599 8.32933 61.4406 8.41C61.5213 8.49067 61.5616 8.619 61.5616 8.795V10.104C61.5616 10.1993 61.5469 10.28 61.5176 10.346C61.4956 10.412 61.4589 10.467 61.4076 10.511L59.9776 11.699C59.9483 11.7283 59.9006 11.754 59.8346 11.776C59.7759 11.798 59.7099 11.809 59.6366 11.809ZM56.3696 10.5H61.0556C61.1949 10.5 61.2939 10.4707 61.3526 10.412C61.4186 10.346 61.4516 10.2433 61.4516 10.104V8.795C61.4516 8.65567 61.4186 8.55667 61.3526 8.498C61.2939 8.432 61.1949 8.399 61.0556 8.399H59.9886V4.703H61.0556C61.1949 4.703 61.2939 4.67367 61.3526 4.615C61.4186 4.549 61.4516 4.44633 61.4516 4.307V2.976C61.4516 2.83667 61.4186 2.73767 61.3526 2.679C61.2939 2.613 61.1949 2.58 61.0556 2.58H56.3696C56.2303 2.58 56.1276 2.613 56.0616 2.679C56.0029 2.73767 55.9736 2.83667 55.9736 2.976V4.307C55.9736 4.44633 56.0029 4.549 56.0616 4.615C56.1276 4.67367 56.2303 4.703 56.3696 4.703H57.4586V8.399H56.3696C56.2303 8.399 56.1276 8.432 56.0616 8.498C56.0029 8.55667 55.9736 8.65567 55.9736 8.795V10.104C55.9736 10.2433 56.0029 10.346 56.0616 10.412C56.1276 10.4707 56.2303 10.5 56.3696 10.5ZM60.4616 9.51H56.9636V9.4H58.6686V3.68H56.9636V3.57H60.4616V3.68H58.7786V9.4H60.4616V9.51ZM75.0264 11.809H73.2444C73.0684 11.809 72.9401 11.7687 72.8594 11.688C72.7788 11.6073 72.7384 11.479 72.7384 11.303V6.012H71.2314C71.0554 6.012 70.9271 5.97167 70.8464 5.891C70.7658 5.81033 70.7254 5.682 70.7254 5.506V4.175C70.7254 4.07967 70.7364 3.999 70.7584 3.933C70.7878 3.867 70.8281 3.812 70.8794 3.768L72.2984 2.569C72.3351 2.53967 72.3828 2.51767 72.4414 2.503C72.5074 2.481 72.5771 2.47 72.6504 2.47H78.4584C78.6344 2.47 78.7628 2.51033 78.8434 2.591C78.9241 2.67167 78.9644 2.8 78.9644 2.976V4.307C78.9644 4.40233 78.9498 4.483 78.9204 4.549C78.8984 4.615 78.8618 4.67 78.8104 4.714L77.3804 5.902C77.3511 5.93133 77.3034 5.957 77.2374 5.979C77.1788 6.001 77.1128 6.012 77.0394 6.012H76.9514V10.104C76.9514 10.1993 76.9368 10.28 76.9074 10.346C76.8854 10.412 76.8488 10.467 76.7974 10.511L75.3674 11.699C75.3381 11.7283 75.2904 11.754 75.2244 11.776C75.1658 11.798 75.0998 11.809 75.0264 11.809ZM76.4454 10.5C76.5848 10.5 76.6838 10.4707 76.7424 10.412C76.8084 10.346 76.8414 10.2433 76.8414 10.104V4.703H78.4584C78.5978 4.703 78.6968 4.67367 78.7554 4.615C78.8214 4.549 78.8544 4.44633 78.8544 4.307V2.976C78.8544 2.83667 78.8214 2.73767 78.7554 2.679C78.6968 2.613 78.5978 2.58 78.4584 2.58H72.6504C72.5111 2.58 72.4084 2.613 72.3424 2.679C72.2838 2.73767 72.2544 2.83667 72.2544 2.976V4.307C72.2544 4.44633 72.2838 4.549 72.3424 4.615C72.4084 4.67367 72.5111 4.703 72.6504 4.703H74.2674V10.104C74.2674 10.2433 74.2968 10.346 74.3554 10.412C74.4214 10.4707 74.5241 10.5 74.6634 10.5H76.4454ZM75.4994 9.51V3.68H73.2444V3.57H77.8644V3.68H75.6094V9.51H75.4994ZM91.4699 12.689H90.8759C90.3332 12.689 89.8786 12.6303 89.5119 12.513C89.1526 12.3957 88.8629 12.2343 88.6429 12.029C88.4302 11.8237 88.2799 11.5743 88.1919 11.281C88.1039 10.995 88.0599 10.6797 88.0599 10.335V5.154C88.0599 4.78 88.1112 4.439 88.2139 4.131C88.3239 3.823 88.5036 3.56633 88.7529 3.361L90.1719 2.162C90.3846 1.97867 90.6632 1.83933 91.0079 1.744C91.3599 1.64133 91.7889 1.59 92.2949 1.59H92.8889C93.0649 1.59 93.1932 1.63033 93.2739 1.711C93.3546 1.79167 93.3949 1.92 93.3949 2.096V3.427C93.3949 3.52233 93.3802 3.603 93.3509 3.669C93.3289 3.735 93.2922 3.79 93.2409 3.834L92.2069 4.703V8.729C92.2069 8.86833 92.2289 8.97833 92.2729 9.059C92.3169 9.13233 92.4086 9.169 92.5479 9.169H92.8889C93.0649 9.169 93.1932 9.20933 93.2739 9.29C93.3546 9.37067 93.3949 9.499 93.3949 9.675V10.984C93.3949 11.0793 93.3802 11.16 93.3509 11.226C93.3289 11.292 93.2922 11.347 93.2409 11.391L91.8109 12.579C91.7816 12.6083 91.7339 12.634 91.6679 12.656C91.6092 12.678 91.5432 12.689 91.4699 12.689ZM92.8889 11.38C93.0282 11.38 93.1272 11.347 93.1859 11.281C93.2519 11.2223 93.2849 11.1233 93.2849 10.984V9.675C93.2849 9.53567 93.2519 9.43667 93.1859 9.378C93.1272 9.312 93.0282 9.279 92.8889 9.279H92.5479C92.3719 9.279 92.2509 9.235 92.1849 9.147C92.1262 9.059 92.0969 8.91967 92.0969 8.729V4.373C92.0969 4.18233 92.1262 4.043 92.1849 3.955C92.2509 3.867 92.3719 3.823 92.5479 3.823H92.8889C93.0282 3.823 93.1272 3.79367 93.1859 3.735C93.2519 3.669 93.2849 3.56633 93.2849 3.427V2.096C93.2849 1.95667 93.2519 1.85767 93.1859 1.799C93.1272 1.733 93.0282 1.7 92.8889 1.7H92.2949C91.2609 1.7 90.5496 1.909 90.1609 2.327C89.7796 2.745 89.5889 3.28767 89.5889 3.955V9.136C89.5889 9.796 89.7796 10.335 90.1609 10.753C90.5496 11.171 91.2609 11.38 92.2949 11.38H92.8889ZM92.2949 10.269V10.379C91.8182 10.379 91.4479 10.2947 91.1839 10.126C90.9199 9.95 90.7879 9.62 90.7879 9.136V3.955C90.7879 3.471 90.9162 3.14467 91.1729 2.976C91.4369 2.8 91.8109 2.712 92.2949 2.712V2.822C91.8549 2.822 91.5102 2.899 91.2609 3.053C91.0189 3.207 90.8979 3.50767 90.8979 3.955V9.136C90.8979 9.58333 91.0226 9.884 91.2719 10.038C91.5212 10.192 91.8622 10.269 92.2949 10.269ZM103.221 11.809C103.045 11.809 102.917 11.7687 102.836 11.688C102.756 11.6073 102.715 11.479 102.715 11.303V10.016C102.715 9.92067 102.726 9.84 102.748 9.774C102.778 9.708 102.818 9.653 102.869 9.609L103.969 8.685C103.581 8.56767 103.273 8.36967 103.045 8.091C102.825 7.805 102.715 7.398 102.715 6.87V5.715C102.715 5.385 102.77 5.09167 102.88 4.835C102.99 4.57833 103.148 4.362 103.353 4.186L104.783 2.987C104.981 2.82567 105.227 2.701 105.52 2.613C105.814 2.51767 106.147 2.47 106.521 2.47H109.601C109.777 2.47 109.906 2.51033 109.986 2.591C110.067 2.67167 110.107 2.8 110.107 2.976V4.285C110.107 4.38033 110.093 4.461 110.063 4.527C110.041 4.593 110.005 4.648 109.953 4.692L108.963 5.517C109.425 5.61967 109.796 5.814 110.074 6.1C110.36 6.37867 110.503 6.815 110.503 7.409V8.564C110.503 8.894 110.448 9.18733 110.338 9.444C110.228 9.70067 110.067 9.917 109.854 10.093L108.435 11.281C108.23 11.4497 107.981 11.578 107.687 11.666C107.394 11.7613 107.064 11.809 106.697 11.809H103.221ZM108.116 10.5C108.82 10.5 109.374 10.335 109.777 10.005C110.188 9.66767 110.393 9.18733 110.393 8.564V7.409C110.393 6.793 110.236 6.353 109.92 6.089C109.605 5.825 109.191 5.65633 108.677 5.583L107.038 5.363C106.943 5.35567 106.87 5.319 106.818 5.253C106.767 5.187 106.741 5.10633 106.741 5.011C106.741 4.91567 106.767 4.83867 106.818 4.78C106.87 4.714 106.943 4.681 107.038 4.681H109.601C109.741 4.681 109.84 4.65167 109.898 4.593C109.964 4.527 109.997 4.42433 109.997 4.285V2.976C109.997 2.83667 109.964 2.73767 109.898 2.679C109.84 2.613 109.741 2.58 109.601 2.58H106.521C105.81 2.58 105.253 2.74867 104.849 3.086C104.446 3.416 104.244 3.89267 104.244 4.516V5.671C104.244 6.287 104.398 6.727 104.706 6.991C105.022 7.255 105.436 7.42367 105.949 7.497L107.599 7.728C107.695 7.73533 107.764 7.76833 107.808 7.827C107.86 7.88567 107.885 7.97733 107.885 8.102C107.885 8.19 107.86 8.267 107.808 8.333C107.764 8.39167 107.695 8.421 107.599 8.421H104.64C104.501 8.421 104.398 8.454 104.332 8.52C104.274 8.57867 104.244 8.67767 104.244 8.817V10.104C104.244 10.2433 104.274 10.346 104.332 10.412C104.398 10.4707 104.501 10.5 104.64 10.5H108.116ZM109.007 3.57V3.68H106.565C106.257 3.68 106.012 3.76433 105.828 3.933C105.645 4.10167 105.553 4.31433 105.553 4.571V5.473C105.553 5.72967 105.605 5.90933 105.707 6.012C105.81 6.11467 105.946 6.18067 106.114 6.21L108.435 6.683C108.655 6.727 108.835 6.82233 108.974 6.969C109.121 7.11567 109.194 7.37967 109.194 7.761V8.399C109.194 8.72167 109.084 8.98933 108.864 9.202C108.644 9.40733 108.347 9.51 107.973 9.51H105.234V9.4H107.973C108.311 9.4 108.578 9.30833 108.776 9.125C108.982 8.93433 109.084 8.69233 109.084 8.399V7.761C109.084 7.41633 109.022 7.18167 108.897 7.057C108.78 6.925 108.619 6.837 108.413 6.793L106.092 6.32C105.902 6.28333 105.744 6.21 105.619 6.1C105.502 5.98267 105.443 5.77367 105.443 5.473V4.571C105.443 4.27767 105.546 4.03933 105.751 3.856C105.957 3.66533 106.228 3.57 106.565 3.57H109.007ZM120.205 12.689C120.029 12.689 119.901 12.6487 119.82 12.568C119.739 12.4873 119.699 12.359 119.699 12.183V10.874C119.699 10.7787 119.71 10.698 119.732 10.632C119.761 10.566 119.802 10.511 119.853 10.467L120.887 9.598V5.572C120.887 5.43267 120.865 5.32633 120.821 5.253C120.777 5.17233 120.685 5.132 120.546 5.132H120.205C120.029 5.132 119.901 5.09167 119.82 5.011C119.739 4.93033 119.699 4.802 119.699 4.626V3.295C119.699 3.19967 119.71 3.119 119.732 3.053C119.761 2.987 119.802 2.932 119.853 2.888L121.272 1.689C121.309 1.65967 121.356 1.63767 121.415 1.623C121.481 1.601 121.551 1.59 121.624 1.59H122.218C122.761 1.59 123.212 1.64867 123.571 1.766C123.938 1.88333 124.227 2.04467 124.44 2.25C124.66 2.45533 124.814 2.70467 124.902 2.998C124.99 3.29133 125.034 3.61033 125.034 3.955V9.136C125.034 9.50267 124.979 9.84 124.869 10.148C124.766 10.4487 124.59 10.7017 124.341 10.907L122.922 12.106C122.702 12.2893 122.42 12.4323 122.075 12.535C121.73 12.6377 121.305 12.689 120.799 12.689H120.205ZM122.218 11.38C123.252 11.38 123.96 11.171 124.341 10.753C124.73 10.335 124.924 9.796 124.924 9.136V3.955C124.924 3.28767 124.73 2.745 124.341 2.327C123.96 1.909 123.252 1.7 122.218 1.7H121.624C121.485 1.7 121.382 1.733 121.316 1.799C121.257 1.85767 121.228 1.95667 121.228 2.096V3.427C121.228 3.56633 121.257 3.669 121.316 3.735C121.382 3.79367 121.485 3.823 121.624 3.823H121.965C122.141 3.823 122.258 3.867 122.317 3.955C122.383 4.043 122.416 4.18233 122.416 4.373V8.729C122.416 8.91967 122.383 9.059 122.317 9.147C122.258 9.235 122.141 9.279 121.965 9.279H121.624C121.485 9.279 121.382 9.312 121.316 9.378C121.257 9.43667 121.228 9.53567 121.228 9.675V10.984C121.228 11.1233 121.257 11.2223 121.316 11.281C121.382 11.347 121.485 11.38 121.624 11.38H122.218ZM123.725 9.136C123.725 9.62 123.593 9.95 123.329 10.126C123.065 10.2947 122.695 10.379 122.218 10.379V10.269C122.651 10.269 122.992 10.192 123.241 10.038C123.49 9.884 123.615 9.58333 123.615 9.136V3.955C123.615 3.50767 123.49 3.207 123.241 3.053C122.999 2.899 122.658 2.822 122.218 2.822V2.712C122.702 2.712 123.072 2.8 123.329 2.976C123.593 3.14467 123.725 3.471 123.725 3.955V9.136ZM5.874 24.809H3.19C2.22933 24.809 1.518 24.5597 1.056 24.061C0.601333 23.5623 0.374 22.917 0.374 22.125V19.034C0.374 18.6307 0.432667 18.2823 0.55 17.989C0.667333 17.6883 0.839667 17.439 1.067 17.241L2.497 16.042C2.72433 15.8513 3.014 15.7083 3.366 15.613C3.718 15.5177 4.13233 15.47 4.609 15.47H7.293C7.469 15.47 7.59733 15.5103 7.678 15.591C7.75867 15.6717 7.799 15.8 7.799 15.976V17.307C7.799 17.4023 7.78433 17.483 7.755 17.549C7.733 17.615 7.69633 17.67 7.645 17.714L6.215 18.902C6.18567 18.9313 6.138 18.957 6.072 18.979C6.01333 19.001 5.94733 19.012 5.874 19.012H4.521V20.871C4.521 21.025 4.56867 21.135 4.664 21.201C4.75933 21.2597 4.89867 21.289 5.082 21.289H7.293C7.469 21.289 7.59733 21.3293 7.678 21.41C7.75867 21.4907 7.799 21.619 7.799 21.795V23.104C7.799 23.1993 7.78433 23.28 7.755 23.346C7.733 23.412 7.69633 23.467 7.645 23.511L6.215 24.699C6.18567 24.7283 6.138 24.754 6.072 24.776C6.01333 24.798 5.94733 24.809 5.874 24.809ZM7.293 23.5C7.43233 23.5 7.53133 23.4707 7.59 23.412C7.656 23.346 7.689 23.2433 7.689 23.104V21.795C7.689 21.6557 7.656 21.5567 7.59 21.498C7.53133 21.432 7.43233 21.399 7.293 21.399H5.082C4.85467 21.399 4.686 21.3587 4.576 21.278C4.466 21.19 4.411 21.0543 4.411 20.871V18.253C4.411 18.0697 4.466 17.934 4.576 17.846C4.686 17.7507 4.85467 17.703 5.082 17.703H7.293C7.43233 17.703 7.53133 17.6737 7.59 17.615C7.656 17.549 7.689 17.4463 7.689 17.307V15.976C7.689 15.8367 7.656 15.7377 7.59 15.679C7.53133 15.613 7.43233 15.58 7.293 15.58H4.609C3.69233 15.58 3.01033 15.767 2.563 16.141C2.123 16.5077 1.903 17.0723 1.903 17.835V21.256C1.903 22.0187 2.123 22.5833 2.563 22.95C3.01033 23.3167 3.69233 23.5 4.609 23.5H7.293ZM6.688 22.4V22.51H4.851C4.13967 22.51 3.66667 22.4 3.432 22.18C3.20467 21.96 3.091 21.597 3.091 21.091V18.011C3.091 17.4903 3.20833 17.12 3.443 16.9C3.67767 16.68 4.147 16.57 4.851 16.57H6.688V16.68H4.851C4.20567 16.68 3.76933 16.7827 3.542 16.988C3.31467 17.186 3.201 17.527 3.201 18.011V21.091C3.201 21.5677 3.311 21.905 3.531 22.103C3.751 22.301 4.191 22.4 4.851 22.4H6.688ZM23.5142 24.281C23.2576 24.501 22.8982 24.6697 22.4362 24.787C21.9742 24.9117 21.3802 24.974 20.6542 24.974C19.9356 24.974 19.3452 24.897 18.8832 24.743C18.4286 24.5963 18.0692 24.3983 17.8052 24.149C17.5486 23.8997 17.3689 23.6137 17.2662 23.291C17.1709 22.9683 17.1232 22.6347 17.1232 22.29V18.869C17.1232 18.5317 17.1709 18.22 17.2662 17.934C17.3616 17.6407 17.5339 17.3913 17.7832 17.186L19.2132 15.998C19.4699 15.778 19.8256 15.6093 20.2802 15.492C20.7422 15.3673 21.3399 15.305 22.0732 15.305C22.7919 15.305 23.3786 15.3637 23.8332 15.481C24.2952 15.5983 24.6546 15.7633 24.9112 15.976C25.1752 16.1813 25.3549 16.4307 25.4502 16.724C25.5456 17.01 25.5932 17.3253 25.5932 17.67V21.421C25.5932 21.7583 25.5456 22.07 25.4502 22.356C25.3549 22.642 25.1826 22.8877 24.9332 23.093L23.5142 24.281ZM25.4832 21.421V17.67C25.4832 17.3327 25.4319 17.0283 25.3292 16.757C25.2339 16.4783 25.0579 16.24 24.8012 16.042C24.5519 15.844 24.2036 15.69 23.7562 15.58C23.3162 15.47 22.7552 15.415 22.0732 15.415C21.3912 15.415 20.8266 15.47 20.3792 15.58C19.9319 15.69 19.5799 15.844 19.3232 16.042C19.0739 16.24 18.8979 16.4783 18.7952 16.757C18.6999 17.0283 18.6522 17.3327 18.6522 17.67V21.421C18.6522 21.7583 18.6999 22.0663 18.7952 22.345C18.8979 22.6163 19.0739 22.851 19.3232 23.049C19.5799 23.2397 19.9319 23.39 20.3792 23.5C20.8266 23.61 21.3912 23.665 22.0732 23.665C22.7552 23.665 23.3162 23.61 23.7562 23.5C24.2036 23.39 24.5519 23.2397 24.8012 23.049C25.0579 22.851 25.2339 22.6163 25.3292 22.345C25.4319 22.0663 25.4832 21.7583 25.4832 21.421ZM24.2842 21.168C24.2842 21.608 24.1266 21.9673 23.8112 22.246C23.4959 22.5173 22.9092 22.653 22.0512 22.653C21.1932 22.653 20.6102 22.5173 20.3022 22.246C19.9942 21.9673 19.8402 21.608 19.8402 21.168V17.923C19.8402 17.483 19.9942 17.1273 20.3022 16.856C20.6102 16.5773 21.1932 16.438 22.0512 16.438C22.9092 16.438 23.4959 16.5773 23.8112 16.856C24.1266 17.1273 24.2842 17.483 24.2842 17.923V21.168ZM19.9502 21.168C19.9502 21.5787 20.0969 21.9123 20.3902 22.169C20.6836 22.4183 21.2372 22.543 22.0512 22.543C22.8652 22.543 23.4226 22.4183 23.7232 22.169C24.0239 21.9123 24.1742 21.5787 24.1742 21.168V17.923C24.1742 17.5123 24.0239 17.1823 23.7232 16.933C23.4226 16.6763 22.8652 16.548 22.0512 16.548C21.2372 16.548 20.6836 16.6763 20.3902 16.933C20.0969 17.1823 19.9502 17.5123 19.9502 17.923V21.168ZM21.1492 21.025V18.066C21.1492 17.9267 21.2042 17.8093 21.3142 17.714C21.4242 17.6113 21.6772 17.56 22.0732 17.56C22.4692 17.56 22.7222 17.6113 22.8322 17.714C22.9422 17.8093 22.9972 17.9267 22.9972 18.066V21.025C22.9972 21.1717 22.9422 21.2963 22.8322 21.399C22.7222 21.4943 22.4692 21.542 22.0732 21.542C21.6772 21.542 21.4242 21.4943 21.3142 21.399C21.2042 21.2963 21.1492 21.1717 21.1492 21.025ZM21.2592 21.025C21.2592 21.0983 21.2739 21.1643 21.3032 21.223C21.3326 21.2743 21.3876 21.3183 21.4682 21.355V19.265C21.4682 19.1917 21.4536 19.1293 21.4242 19.078C21.3949 19.0193 21.3399 18.9753 21.2592 18.946V21.025ZM40.6513 19.265C40.7833 19.265 40.8786 19.2357 40.9373 19.177C40.9959 19.1183 41.0876 18.9937 41.2123 18.803L42.5543 16.757C42.5983 16.6837 42.6459 16.636 42.6973 16.614C42.7559 16.5847 42.8146 16.57 42.8733 16.57H43.0603C43.1629 16.57 43.2363 16.5993 43.2803 16.658C43.3316 16.7093 43.3573 16.7937 43.3573 16.911V22.51H43.2473V16.911C43.2473 16.8523 43.2326 16.801 43.2033 16.757C43.1813 16.7057 43.1336 16.68 43.0603 16.68H42.8953C42.8439 16.68 42.7999 16.6873 42.7633 16.702C42.7266 16.7167 42.6863 16.7607 42.6423 16.834L41.3003 18.858C41.1683 19.056 41.0656 19.1917 40.9923 19.265C40.9263 19.3383 40.8126 19.375 40.6513 19.375C40.4899 19.375 40.3726 19.3383 40.2993 19.265C40.2333 19.1917 40.1343 19.056 40.0023 18.858L38.6603 16.834C38.6163 16.7607 38.5723 16.7167 38.5283 16.702C38.4916 16.6873 38.4476 16.68 38.3963 16.68H38.2313C38.1579 16.68 38.1103 16.7057 38.0883 16.757C38.0663 16.801 38.0553 16.8523 38.0553 16.911V22.51H37.9453V16.911C37.9453 16.7937 37.9673 16.7093 38.0113 16.658C38.0626 16.5993 38.1359 16.57 38.2313 16.57H38.4183C38.4769 16.57 38.5356 16.5847 38.5943 16.614C38.6529 16.636 38.7043 16.6837 38.7483 16.757L40.0903 18.803C40.2149 18.9937 40.3066 19.1183 40.3653 19.177C40.4239 19.2357 40.5193 19.265 40.6513 19.265ZM38.8143 23.5C38.9536 23.5 39.0526 23.4707 39.1113 23.412C39.1773 23.346 39.2103 23.2433 39.2103 23.104V19.232L39.8593 20.431C39.9253 20.5557 40.0023 20.6473 40.0903 20.706C40.1856 20.7573 40.3029 20.783 40.4423 20.783H40.8823C41.0216 20.783 41.1353 20.7573 41.2233 20.706C41.3186 20.6473 41.3993 20.5557 41.4653 20.431L42.1143 19.232V23.104C42.1143 23.2433 42.1436 23.346 42.2023 23.412C42.2683 23.4707 42.3709 23.5 42.5103 23.5H44.2043C44.3436 23.5 44.4426 23.4707 44.5013 23.412C44.5673 23.346 44.6003 23.2433 44.6003 23.104V15.976C44.6003 15.8367 44.5673 15.7377 44.5013 15.679C44.4426 15.613 44.3436 15.58 44.2043 15.58H42.4223C42.3049 15.58 42.2059 15.6057 42.1253 15.657C42.0519 15.7083 41.9823 15.7927 41.9163 15.91L40.9373 17.703C40.9006 17.769 40.8676 17.8167 40.8383 17.846C40.8163 17.8753 40.7833 17.89 40.7393 17.89H40.6403C40.5963 17.89 40.5596 17.8753 40.5303 17.846C40.5083 17.8167 40.4789 17.769 40.4423 17.703L39.4523 15.91C39.3863 15.7927 39.3129 15.7083 39.2323 15.657C39.1589 15.6057 39.0636 15.58 38.9463 15.58H37.1753C37.0359 15.58 36.9333 15.613 36.8673 15.679C36.8086 15.7377 36.7793 15.8367 36.7793 15.976V23.104C36.7793 23.2433 36.8086 23.346 36.8673 23.412C36.9333 23.4707 37.0359 23.5 37.1753 23.5H38.8143ZM39.1663 23.511L37.7363 24.699C37.7069 24.7283 37.6593 24.754 37.5933 24.776C37.5346 24.798 37.4686 24.809 37.3953 24.809H35.7563C35.5803 24.809 35.4519 24.7687 35.3713 24.688C35.2906 24.6073 35.2503 24.479 35.2503 24.303V17.175C35.2503 17.0797 35.2613 16.999 35.2833 16.933C35.3126 16.867 35.3529 16.812 35.4043 16.768L36.8233 15.569C36.8599 15.5397 36.9076 15.5177 36.9663 15.503C37.0323 15.481 37.1019 15.47 37.1753 15.47H38.9463C39.0856 15.47 39.1993 15.4993 39.2873 15.558C39.3826 15.6167 39.4706 15.7157 39.5513 15.855L40.2993 17.23L40.3983 17.054C40.4276 17.0027 40.4569 16.955 40.4863 16.911C40.5229 16.8597 40.5596 16.8193 40.5963 16.79L42.0153 15.602C42.0739 15.558 42.1326 15.525 42.1913 15.503C42.2573 15.481 42.3343 15.47 42.4223 15.47H44.2043C44.3803 15.47 44.5086 15.5103 44.5893 15.591C44.6699 15.6717 44.7103 15.8 44.7103 15.976V23.104C44.7103 23.1993 44.6956 23.28 44.6663 23.346C44.6443 23.412 44.6076 23.467 44.5563 23.511L43.1263 24.699C43.0969 24.7283 43.0493 24.754 42.9833 24.776C42.9246 24.798 42.8586 24.809 42.7853 24.809H41.0913C40.9079 24.809 40.7759 24.7687 40.6953 24.688C40.6219 24.6073 40.5853 24.479 40.5853 24.303V21.399L39.9363 21.938C39.8776 21.9893 39.8079 22.0297 39.7273 22.059C39.6539 22.081 39.5659 22.092 39.4633 22.092H39.3203V23.104C39.3203 23.1993 39.3056 23.28 39.2763 23.346C39.2543 23.412 39.2176 23.467 39.1663 23.511ZM59.8927 19.265C60.0247 19.265 60.12 19.2357 60.1787 19.177C60.2373 19.1183 60.329 18.9937 60.4537 18.803L61.7957 16.757C61.8397 16.6837 61.8873 16.636 61.9387 16.614C61.9973 16.5847 62.056 16.57 62.1147 16.57H62.3017C62.4043 16.57 62.4777 16.5993 62.5217 16.658C62.573 16.7093 62.5987 16.7937 62.5987 16.911V22.51H62.4887V16.911C62.4887 16.8523 62.474 16.801 62.4447 16.757C62.4227 16.7057 62.375 16.68 62.3017 16.68H62.1367C62.0853 16.68 62.0413 16.6873 62.0047 16.702C61.968 16.7167 61.9277 16.7607 61.8837 16.834L60.5417 18.858C60.4097 19.056 60.307 19.1917 60.2337 19.265C60.1677 19.3383 60.054 19.375 59.8927 19.375C59.7313 19.375 59.614 19.3383 59.5407 19.265C59.4747 19.1917 59.3757 19.056 59.2437 18.858L57.9017 16.834C57.8577 16.7607 57.8137 16.7167 57.7697 16.702C57.733 16.6873 57.689 16.68 57.6377 16.68H57.4727C57.3993 16.68 57.3517 16.7057 57.3297 16.757C57.3077 16.801 57.2967 16.8523 57.2967 16.911V22.51H57.1867V16.911C57.1867 16.7937 57.2087 16.7093 57.2527 16.658C57.304 16.5993 57.3773 16.57 57.4727 16.57H57.6597C57.7183 16.57 57.777 16.5847 57.8357 16.614C57.8943 16.636 57.9457 16.6837 57.9897 16.757L59.3317 18.803C59.4563 18.9937 59.548 19.1183 59.6067 19.177C59.6653 19.2357 59.7607 19.265 59.8927 19.265ZM58.0557 23.5C58.195 23.5 58.294 23.4707 58.3527 23.412C58.4187 23.346 58.4517 23.2433 58.4517 23.104V19.232L59.1007 20.431C59.1667 20.5557 59.2437 20.6473 59.3317 20.706C59.427 20.7573 59.5443 20.783 59.6837 20.783H60.1237C60.263 20.783 60.3767 20.7573 60.4647 20.706C60.56 20.6473 60.6407 20.5557 60.7067 20.431L61.3557 19.232V23.104C61.3557 23.2433 61.385 23.346 61.4437 23.412C61.5097 23.4707 61.6123 23.5 61.7517 23.5H63.4457C63.585 23.5 63.684 23.4707 63.7427 23.412C63.8087 23.346 63.8417 23.2433 63.8417 23.104V15.976C63.8417 15.8367 63.8087 15.7377 63.7427 15.679C63.684 15.613 63.585 15.58 63.4457 15.58H61.6637C61.5463 15.58 61.4473 15.6057 61.3667 15.657C61.2933 15.7083 61.2237 15.7927 61.1577 15.91L60.1787 17.703C60.142 17.769 60.109 17.8167 60.0797 17.846C60.0577 17.8753 60.0247 17.89 59.9807 17.89H59.8817C59.8377 17.89 59.801 17.8753 59.7717 17.846C59.7497 17.8167 59.7203 17.769 59.6837 17.703L58.6937 15.91C58.6277 15.7927 58.5543 15.7083 58.4737 15.657C58.4003 15.6057 58.305 15.58 58.1877 15.58H56.4167C56.2773 15.58 56.1747 15.613 56.1087 15.679C56.05 15.7377 56.0207 15.8367 56.0207 15.976V23.104C56.0207 23.2433 56.05 23.346 56.1087 23.412C56.1747 23.4707 56.2773 23.5 56.4167 23.5H58.0557ZM58.4077 23.511L56.9777 24.699C56.9483 24.7283 56.9007 24.754 56.8347 24.776C56.776 24.798 56.71 24.809 56.6367 24.809H54.9977C54.8217 24.809 54.6933 24.7687 54.6127 24.688C54.532 24.6073 54.4917 24.479 54.4917 24.303V17.175C54.4917 17.0797 54.5027 16.999 54.5247 16.933C54.554 16.867 54.5943 16.812 54.6457 16.768L56.0647 15.569C56.1013 15.5397 56.149 15.5177 56.2077 15.503C56.2737 15.481 56.3433 15.47 56.4167 15.47H58.1877C58.327 15.47 58.4407 15.4993 58.5287 15.558C58.624 15.6167 58.712 15.7157 58.7927 15.855L59.5407 17.23L59.6397 17.054C59.669 17.0027 59.6983 16.955 59.7277 16.911C59.7643 16.8597 59.801 16.8193 59.8377 16.79L61.2567 15.602C61.3153 15.558 61.374 15.525 61.4327 15.503C61.4987 15.481 61.5757 15.47 61.6637 15.47H63.4457C63.6217 15.47 63.75 15.5103 63.8307 15.591C63.9113 15.6717 63.9517 15.8 63.9517 15.976V23.104C63.9517 23.1993 63.937 23.28 63.9077 23.346C63.8857 23.412 63.849 23.467 63.7977 23.511L62.3677 24.699C62.3383 24.7283 62.2907 24.754 62.2247 24.776C62.166 24.798 62.1 24.809 62.0267 24.809H60.3327C60.1493 24.809 60.0173 24.7687 59.9367 24.688C59.8633 24.6073 59.8267 24.479 59.8267 24.303V21.399L59.1777 21.938C59.119 21.9893 59.0493 22.0297 58.9687 22.059C58.8953 22.081 58.8073 22.092 58.7047 22.092H58.5617V23.104C58.5617 23.1993 58.547 23.28 58.5177 23.346C58.4957 23.412 58.459 23.467 58.4077 23.511ZM77.1871 24.974C76.4757 24.974 75.8891 24.897 75.4271 24.743C74.9724 24.5963 74.6167 24.3983 74.3601 24.149C74.1034 23.8997 73.9237 23.6137 73.8211 23.291C73.7257 22.9683 73.6781 22.6347 73.6781 22.29V17.175C73.6781 17.0797 73.6891 16.999 73.7111 16.933C73.7404 16.867 73.7807 16.812 73.8321 16.768L75.2511 15.569C75.2877 15.5397 75.3354 15.5177 75.3941 15.503C75.4601 15.481 75.5297 15.47 75.6031 15.47H77.3301C77.5061 15.47 77.6344 15.5103 77.7151 15.591C77.7957 15.6717 77.8361 15.8 77.8361 15.976V20.992C77.8361 21.058 77.8471 21.1203 77.8691 21.179C77.8911 21.2303 77.9387 21.2707 78.0121 21.3V17.175C78.0121 17.0797 78.0231 16.999 78.0451 16.933C78.0671 16.867 78.1001 16.8157 78.1441 16.779L78.1551 16.768L79.5851 15.569C79.6217 15.5397 79.6694 15.5177 79.7281 15.503C79.7868 15.481 79.8564 15.47 79.9371 15.47H81.6091C81.7851 15.47 81.9134 15.5103 81.9941 15.591C82.0748 15.6717 82.1151 15.8 82.1151 15.976V21.421C82.1151 21.7583 82.0674 22.07 81.9721 22.356C81.8767 22.642 81.7044 22.8877 81.4551 23.093L80.0251 24.281C79.7684 24.501 79.4127 24.6697 78.9581 24.787C78.5034 24.9117 77.9131 24.974 77.1871 24.974ZM82.0051 21.421V15.976C82.0051 15.8367 81.9721 15.7377 81.9061 15.679C81.8474 15.613 81.7484 15.58 81.6091 15.58H79.9371C79.7977 15.58 79.6951 15.613 79.6291 15.679C79.5704 15.7377 79.5411 15.8367 79.5411 15.976V20.992C79.5411 21.1387 79.4861 21.2633 79.3761 21.366C79.2661 21.4613 79.0167 21.509 78.6281 21.509C78.2467 21.509 78.0011 21.4613 77.8911 21.366C77.7811 21.2633 77.7261 21.1387 77.7261 20.992V15.976C77.7261 15.8367 77.6931 15.7377 77.6271 15.679C77.5684 15.613 77.4694 15.58 77.3301 15.58H75.6031C75.4637 15.58 75.3611 15.613 75.2951 15.679C75.2364 15.7377 75.2071 15.8367 75.2071 15.976V21.421C75.2071 21.7583 75.2547 22.0663 75.3501 22.345C75.4527 22.6163 75.6287 22.851 75.8781 23.049C76.1347 23.2397 76.4831 23.39 76.9231 23.5C77.3631 23.61 77.9241 23.665 78.6061 23.665C79.2881 23.665 79.8491 23.61 80.2891 23.5C80.7291 23.39 81.0737 23.2397 81.3231 23.049C81.5797 22.851 81.7558 22.6163 81.8511 22.345C81.9538 22.0663 82.0051 21.7583 82.0051 21.421ZM76.4171 16.57H76.5271V21.157C76.5271 21.5677 76.6701 21.9013 76.9561 22.158C77.2494 22.4073 77.8031 22.532 78.6171 22.532C79.4311 22.532 79.9847 22.4073 80.2781 22.158C80.5714 21.9013 80.7181 21.5677 80.7181 21.157V16.57H80.8281V21.157C80.8281 21.597 80.6741 21.9563 80.3661 22.235C80.0581 22.5063 79.4751 22.642 78.6171 22.642C77.7591 22.642 77.1761 22.5063 76.8681 22.235C76.5674 21.9563 76.4171 21.597 76.4171 21.157V16.57ZM94.8168 16.658L98.8648 21.212V16.57H98.9748V22.51H98.8648V21.377L94.7068 16.713C94.6995 16.7057 94.6885 16.6983 94.6738 16.691C94.6665 16.6837 94.6592 16.68 94.6518 16.68C94.6445 16.68 94.6372 16.6837 94.6298 16.691C94.6298 16.6983 94.6298 16.7057 94.6298 16.713V22.51H94.5198V16.691C94.5198 16.647 94.5345 16.614 94.5638 16.592C94.5932 16.57 94.6225 16.559 94.6518 16.559C94.6812 16.559 94.7068 16.5663 94.7288 16.581C94.7508 16.5957 94.7802 16.6213 94.8168 16.658ZM95.4108 23.5C95.5502 23.5 95.6492 23.4707 95.7078 23.412C95.7738 23.346 95.8068 23.2433 95.8068 23.104V19.474L97.6878 21.751V23.104C97.6878 23.2433 97.7172 23.346 97.7758 23.412C97.8418 23.4707 97.9445 23.5 98.0838 23.5H99.7338C99.8732 23.5 99.9722 23.4707 100.031 23.412C100.097 23.346 100.13 23.2433 100.13 23.104V15.976C100.13 15.8367 100.097 15.7377 100.031 15.679C99.9722 15.613 99.8732 15.58 99.7338 15.58H98.0838C97.9445 15.58 97.8418 15.613 97.7758 15.679C97.7172 15.7377 97.6878 15.8367 97.6878 15.976V18.319L95.5538 15.877C95.4585 15.767 95.3595 15.69 95.2568 15.646C95.1615 15.602 95.0442 15.58 94.9048 15.58H93.7608C93.6215 15.58 93.5188 15.613 93.4528 15.679C93.3942 15.7377 93.3648 15.8367 93.3648 15.976V23.104C93.3648 23.2433 93.3942 23.346 93.4528 23.412C93.5188 23.4707 93.6215 23.5 93.7608 23.5H95.4108ZM95.7628 23.511L94.3328 24.699C94.3035 24.7283 94.2558 24.754 94.1898 24.776C94.1312 24.798 94.0652 24.809 93.9918 24.809H92.3418C92.1658 24.809 92.0375 24.7687 91.9568 24.688C91.8762 24.6073 91.8358 24.479 91.8358 24.303V17.175C91.8358 17.0797 91.8468 16.999 91.8688 16.933C91.8982 16.867 91.9385 16.812 91.9898 16.768L93.4088 15.569C93.4455 15.5397 93.4932 15.5177 93.5518 15.503C93.6178 15.481 93.6875 15.47 93.7608 15.47H94.9048C95.0662 15.47 95.2018 15.4957 95.3118 15.547C95.4218 15.5983 95.5318 15.6827 95.6418 15.8L96.4008 16.68L97.7318 15.569C97.7685 15.5397 97.8162 15.5177 97.8748 15.503C97.9408 15.481 98.0105 15.47 98.0838 15.47H99.7338C99.9098 15.47 100.038 15.5103 100.119 15.591C100.199 15.6717 100.24 15.8 100.24 15.976V23.104C100.24 23.1993 100.225 23.28 100.196 23.346C100.174 23.412 100.137 23.467 100.086 23.511L98.6558 24.699C98.6265 24.7283 98.5788 24.754 98.5128 24.776C98.4542 24.798 98.3882 24.809 98.3148 24.809H96.6648C96.4888 24.809 96.3605 24.7687 96.2798 24.688C96.1992 24.6073 96.1588 24.479 96.1588 24.303V22.994L95.9168 22.697V23.104C95.9168 23.1993 95.9022 23.28 95.8728 23.346C95.8508 23.412 95.8142 23.467 95.7628 23.511ZM113.193 25.689H112.599C112.056 25.689 111.601 25.6303 111.235 25.513C110.875 25.3957 110.586 25.2343 110.366 25.029C110.153 24.8237 110.003 24.5743 109.915 24.281C109.827 23.995 109.783 23.6797 109.783 23.335V18.154C109.783 17.78 109.834 17.439 109.937 17.131C110.047 16.823 110.226 16.5663 110.476 16.361L111.895 15.162C112.107 14.9787 112.386 14.8393 112.731 14.744C113.083 14.6413 113.512 14.59 114.018 14.59H114.612C114.788 14.59 114.916 14.6303 114.997 14.711C115.077 14.7917 115.118 14.92 115.118 15.096V16.427C115.118 16.5223 115.103 16.603 115.074 16.669C115.052 16.735 115.015 16.79 114.964 16.834L113.93 17.703V21.729C113.93 21.8683 113.952 21.9783 113.996 22.059C114.04 22.1323 114.131 22.169 114.271 22.169H114.612C114.788 22.169 114.916 22.2093 114.997 22.29C115.077 22.3707 115.118 22.499 115.118 22.675V23.984C115.118 24.0793 115.103 24.16 115.074 24.226C115.052 24.292 115.015 24.347 114.964 24.391L113.534 25.579C113.504 25.6083 113.457 25.634 113.391 25.656C113.332 25.678 113.266 25.689 113.193 25.689ZM114.612 24.38C114.751 24.38 114.85 24.347 114.909 24.281C114.975 24.2223 115.008 24.1233 115.008 23.984V22.675C115.008 22.5357 114.975 22.4367 114.909 22.378C114.85 22.312 114.751 22.279 114.612 22.279H114.271C114.095 22.279 113.974 22.235 113.908 22.147C113.849 22.059 113.82 21.9197 113.82 21.729V17.373C113.82 17.1823 113.849 17.043 113.908 16.955C113.974 16.867 114.095 16.823 114.271 16.823H114.612C114.751 16.823 114.85 16.7937 114.909 16.735C114.975 16.669 115.008 16.5663 115.008 16.427V15.096C115.008 14.9567 114.975 14.8577 114.909 14.799C114.85 14.733 114.751 14.7 114.612 14.7H114.018C112.984 14.7 112.272 14.909 111.884 15.327C111.502 15.745 111.312 16.2877 111.312 16.955V22.136C111.312 22.796 111.502 23.335 111.884 23.753C112.272 24.171 112.984 24.38 114.018 24.38H114.612ZM114.018 23.269V23.379C113.541 23.379 113.171 23.2947 112.907 23.126C112.643 22.95 112.511 22.62 112.511 22.136V16.955C112.511 16.471 112.639 16.1447 112.896 15.976C113.16 15.8 113.534 15.712 114.018 15.712V15.822C113.578 15.822 113.233 15.899 112.984 16.053C112.742 16.207 112.621 16.5077 112.621 16.955V22.136C112.621 22.5833 112.745 22.884 112.995 23.038C113.244 23.192 113.585 23.269 114.018 23.269ZM124.944 24.809C124.768 24.809 124.64 24.7687 124.559 24.688C124.478 24.6073 124.438 24.479 124.438 24.303V23.016C124.438 22.9207 124.449 22.84 124.471 22.774C124.5 22.708 124.541 22.653 124.592 22.609L125.692 21.685C125.303 21.5677 124.995 21.3697 124.768 21.091C124.548 20.805 124.438 20.398 124.438 19.87V18.715C124.438 18.385 124.493 18.0917 124.603 17.835C124.713 17.5783 124.871 17.362 125.076 17.186L126.506 15.987C126.704 15.8257 126.95 15.701 127.243 15.613C127.536 15.5177 127.87 15.47 128.244 15.47H131.324C131.5 15.47 131.628 15.5103 131.709 15.591C131.79 15.6717 131.83 15.8 131.83 15.976V17.285C131.83 17.3803 131.815 17.461 131.786 17.527C131.764 17.593 131.727 17.648 131.676 17.692L130.686 18.517C131.148 18.6197 131.518 18.814 131.797 19.1C132.083 19.3787 132.226 19.815 132.226 20.409V21.564C132.226 21.894 132.171 22.1873 132.061 22.444C131.951 22.7007 131.79 22.917 131.577 23.093L130.158 24.281C129.953 24.4497 129.703 24.578 129.41 24.666C129.117 24.7613 128.787 24.809 128.42 24.809H124.944ZM129.839 23.5C130.543 23.5 131.097 23.335 131.5 23.005C131.911 22.6677 132.116 22.1873 132.116 21.564V20.409C132.116 19.793 131.958 19.353 131.643 19.089C131.328 18.825 130.913 18.6563 130.4 18.583L128.761 18.363C128.666 18.3557 128.592 18.319 128.541 18.253C128.49 18.187 128.464 18.1063 128.464 18.011C128.464 17.9157 128.49 17.8387 128.541 17.78C128.592 17.714 128.666 17.681 128.761 17.681H131.324C131.463 17.681 131.562 17.6517 131.621 17.593C131.687 17.527 131.72 17.4243 131.72 17.285V15.976C131.72 15.8367 131.687 15.7377 131.621 15.679C131.562 15.613 131.463 15.58 131.324 15.58H128.244C127.533 15.58 126.975 15.7487 126.572 16.086C126.169 16.416 125.967 16.8927 125.967 17.516V18.671C125.967 19.287 126.121 19.727 126.429 19.991C126.744 20.255 127.159 20.4237 127.672 20.497L129.322 20.728C129.417 20.7353 129.487 20.7683 129.531 20.827C129.582 20.8857 129.608 20.9773 129.608 21.102C129.608 21.19 129.582 21.267 129.531 21.333C129.487 21.3917 129.417 21.421 129.322 21.421H126.363C126.224 21.421 126.121 21.454 126.055 21.52C125.996 21.5787 125.967 21.6777 125.967 21.817V23.104C125.967 23.2433 125.996 23.346 126.055 23.412C126.121 23.4707 126.224 23.5 126.363 23.5H129.839ZM130.73 16.57V16.68H128.288C127.98 16.68 127.734 16.7643 127.551 16.933C127.368 17.1017 127.276 17.3143 127.276 17.571V18.473C127.276 18.7297 127.327 18.9093 127.43 19.012C127.533 19.1147 127.668 19.1807 127.837 19.21L130.158 19.683C130.378 19.727 130.558 19.8223 130.697 19.969C130.844 20.1157 130.917 20.3797 130.917 20.761V21.399C130.917 21.7217 130.807 21.9893 130.587 22.202C130.367 22.4073 130.07 22.51 129.696 22.51H126.957V22.4H129.696C130.033 22.4 130.301 22.3083 130.499 22.125C130.704 21.9343 130.807 21.6923 130.807 21.399V20.761C130.807 20.4163 130.745 20.1817 130.62 20.057C130.503 19.925 130.341 19.837 130.136 19.793L127.815 19.32C127.624 19.2833 127.467 19.21 127.342 19.1C127.225 18.9827 127.166 18.7737 127.166 18.473V17.571C127.166 17.2777 127.269 17.0393 127.474 16.856C127.679 16.6653 127.951 16.57 128.288 16.57H130.73ZM141.928 25.689C141.752 25.689 141.624 25.6487 141.543 25.568C141.462 25.4873 141.422 25.359 141.422 25.183V23.874C141.422 23.7787 141.433 23.698 141.455 23.632C141.484 23.566 141.525 23.511 141.576 23.467L142.61 22.598V18.572C142.61 18.4327 142.588 18.3263 142.544 18.253C142.5 18.1723 142.408 18.132 142.269 18.132H141.928C141.752 18.132 141.624 18.0917 141.543 18.011C141.462 17.9303 141.422 17.802 141.422 17.626V16.295C141.422 16.1997 141.433 16.119 141.455 16.053C141.484 15.987 141.525 15.932 141.576 15.888L142.995 14.689C143.032 14.6597 143.079 14.6377 143.138 14.623C143.204 14.601 143.274 14.59 143.347 14.59H143.941C144.484 14.59 144.935 14.6487 145.294 14.766C145.661 14.8833 145.95 15.0447 146.163 15.25C146.383 15.4553 146.537 15.7047 146.625 15.998C146.713 16.2913 146.757 16.6103 146.757 16.955V22.136C146.757 22.5027 146.702 22.84 146.592 23.148C146.489 23.4487 146.313 23.7017 146.064 23.907L144.645 25.106C144.425 25.2893 144.143 25.4323 143.798 25.535C143.453 25.6377 143.028 25.689 142.522 25.689H141.928ZM143.941 24.38C144.975 24.38 145.683 24.171 146.064 23.753C146.453 23.335 146.647 22.796 146.647 22.136V16.955C146.647 16.2877 146.453 15.745 146.064 15.327C145.683 14.909 144.975 14.7 143.941 14.7H143.347C143.208 14.7 143.105 14.733 143.039 14.799C142.98 14.8577 142.951 14.9567 142.951 15.096V16.427C142.951 16.5663 142.98 16.669 143.039 16.735C143.105 16.7937 143.208 16.823 143.347 16.823H143.688C143.864 16.823 143.981 16.867 144.04 16.955C144.106 17.043 144.139 17.1823 144.139 17.373V21.729C144.139 21.9197 144.106 22.059 144.04 22.147C143.981 22.235 143.864 22.279 143.688 22.279H143.347C143.208 22.279 143.105 22.312 143.039 22.378C142.98 22.4367 142.951 22.5357 142.951 22.675V23.984C142.951 24.1233 142.98 24.2223 143.039 24.281C143.105 24.347 143.208 24.38 143.347 24.38H143.941ZM145.448 22.136C145.448 22.62 145.316 22.95 145.052 23.126C144.788 23.2947 144.418 23.379 143.941 23.379V23.269C144.374 23.269 144.715 23.192 144.964 23.038C145.213 22.884 145.338 22.5833 145.338 22.136V16.955C145.338 16.5077 145.213 16.207 144.964 16.053C144.722 15.899 144.381 15.822 143.941 15.822V15.712C144.425 15.712 144.795 15.8 145.052 15.976C145.316 16.1447 145.448 16.471 145.448 16.955V22.136Z" fill="white"/>
</svg>
